<svg width="24" height="24" viewBox="0 0 24 24" fill="none" xmlns="http://www.w3.org/2000/svg">
<g id="trailingIcon1?">
<path id="Icon" fill-rule="evenodd" clip-rule="evenodd" d="M13.9801 2.28318C13.9932 2.19067 14 2.09613 14 2C14 0.895431 13.1046 0 12 0C10.8954 0 9.99999 0.895431 9.99999 2C9.99999 2.09613 10.0068 2.19067 10.0199 2.28318C7.53598 3.01069 5.58667 5.07554 5.08209 7.72458L4.0611 13.0848C4.05511 13.1163 4.04343 13.1464 4.02665 13.1736L2.02415 16.4277C0.79411 18.4265 2.23216 21 4.57912 21H8.99999C8.99999 22.6569 10.3431 24 12 24C13.6568 24 15 22.6569 15 21H19.4209C21.7678 21 23.2059 18.4265 21.9758 16.4277L19.9733 13.1736C19.9566 13.1464 19.9449 13.1163 19.9389 13.0848L18.9179 7.72458C18.4133 5.07554 16.464 3.01069 13.9801 2.28318ZM12 4C9.57903 4 7.49976 5.7206 7.04677 8.0988L6.02578 13.459C5.97432 13.7292 5.87408 13.9876 5.72996 14.2218L3.72746 17.4759C3.31745 18.1422 3.7968 19 4.57912 19H19.4209C20.2032 19 20.6825 18.1422 20.2725 17.4759L18.27 14.2218C18.1259 13.9876 18.0257 13.7292 17.9742 13.459L16.9532 8.0988C16.5002 5.7206 14.421 4 12 4ZM12 22C12.5523 22 13 21.5523 13 21H11C11 21.5523 11.4477 22 12 22Z" fill="black"/>
</g>
</svg>
