<svg width="24" height="24" viewBox="0 0 24 24" fill="none" xmlns="http://www.w3.org/2000/svg">
<g id="Icon" clip-path="url(#clip0_1_559)">
<g id="Icon_2">
<path fill-rule="evenodd" clip-rule="evenodd" d="M1.25006 1C0.697776 1 0.250061 1.44772 0.250061 2C0.250061 2.55228 0.697776 3 1.25006 3H2.06343C3.10296 3 3.96918 3.79636 4.05638 4.83223L4.77222 13.3355C4.94663 15.4073 6.67906 17 8.75812 17H18.2253C20.3136 17 22.0505 15.3935 22.2131 13.3116L22.6819 7.31155C22.8635 4.9867 21.026 3 18.694 3H8.25754C7.36156 3 6.5388 3.29321 5.87546 3.78603C5.35849 2.15918 3.83709 1 2.06343 1H1.25006ZM6.76517 13.1678L6.47786 9.75484L6.26431 7.16431C6.16823 5.9989 7.08817 5 8.25754 5H18.694C19.86 5 20.7788 5.99335 20.688 7.15578L20.2192 13.1558C20.1379 14.1968 19.2694 15 18.2253 15H8.75812C7.71859 15 6.85237 14.2036 6.76517 13.1678Z" fill="#2E2814" fill-opacity="0.62"/>
<path d="M11.0001 21C11.0001 22.1046 10.1046 23 9.00006 23C7.89549 23 7.00006 22.1046 7.00006 21C7.00006 19.8954 7.89549 19 9.00006 19C10.1046 19 11.0001 19.8954 11.0001 21Z" fill="#2E2814" fill-opacity="0.62"/>
<path d="M20.0001 21C20.0001 22.1046 19.1046 23 18.0001 23C16.8955 23 16.0001 22.1046 16.0001 21C16.0001 19.8954 16.8955 19 18.0001 19C19.1046 19 20.0001 19.8954 20.0001 21Z" fill="#2E2814" fill-opacity="0.62"/>
</g>
</g>
<defs>
<clipPath id="clip0_1_559">
<rect width="24" height="24" fill="white"/>
</clipPath>
</defs>
</svg>
