<svg width="24" height="24" viewBox="0 0 24 24" fill="none" xmlns="http://www.w3.org/2000/svg">
<g id="Heart">
<path id="Icon" fill-rule="evenodd" clip-rule="evenodd" d="M11.1058 22.7889L12.0003 21L12.8947 22.7889C12.3316 23.0704 11.6689 23.0704 11.1058 22.7889ZM10.78 5.84736C8.26979 2.97445 3.62162 3.23355 3.06298 7.5383C2.85757 9.12107 2.94214 10.6603 3.50039 12C6.00044 18 12.0003 21 12.0003 21C11.1058 22.7889 11.1047 22.7883 11.1047 22.7883L11.1033 22.7876L11.1003 22.7861L11.0925 22.7822L11.0705 22.771C11.053 22.762 11.0298 22.75 11.0012 22.7349C10.944 22.7048 10.8652 22.6626 10.7671 22.6082C10.5712 22.4995 10.2977 22.3417 9.96571 22.1348C9.30319 21.7218 8.39998 21.1079 7.4127 20.2908C5.45443 18.6701 3.07251 16.1731 1.65424 12.7693C0.916162 10.9979 0.846786 9.07496 1.07961 7.2809C1.30474 5.54614 2.06197 4.11472 3.26747 3.15793C4.45644 2.21427 5.91385 1.86562 7.31115 1.96883C9.01113 2.09439 10.7004 2.88441 12.0003 4.22163C13.3002 2.88437 14.9895 2.09434 16.6895 1.96877C18.0868 1.86556 19.5443 2.2142 20.7332 3.15786C21.9388 4.11465 22.696 5.54607 22.9212 7.28085C23.154 9.07491 23.0847 10.9979 22.3466 12.7693C20.9284 16.1731 18.5463 18.6702 16.588 20.2908C15.6007 21.1079 14.6974 21.7218 14.0349 22.1348C13.7029 22.3417 13.4294 22.4995 13.2334 22.6082C13.1353 22.6626 13.0565 22.7049 12.9993 22.7349C12.9707 22.75 12.9475 22.762 12.93 22.771L12.908 22.7822L12.9002 22.7861L12.8972 22.7877L12.8959 22.7883C12.8959 22.7883 12.8947 22.7889 12.0003 21C12.0003 21 18.0005 18 20.5005 12C21.0587 10.6603 21.1433 9.12105 20.9378 7.53827C20.3791 3.23345 15.7308 2.97438 13.2205 5.84737C13.168 5.90747 13.1164 5.96895 13.0658 6.03178C12.6138 6.59321 11.3867 6.59321 10.9347 6.03178C10.8841 5.96894 10.8326 5.90747 10.78 5.84736Z" fill="#28251B"/>
</g>
</svg>
