<svg width="24" height="24" viewBox="0 0 24 24" fill="none" xmlns="http://www.w3.org/2000/svg">
<g id="Icon" clip-path="url(#clip0_17_310)">
<path id="Icon_2" fill-rule="evenodd" clip-rule="evenodd" d="M11.3463 3.1858C11.7218 2.86157 12.2781 2.86157 12.6536 3.1858L19 8.66681V19C19 20.1046 18.1046 21 17 21H7C5.89543 21 5 20.1046 5 19V8.66673L11.3463 3.1858ZM3 10.394L1.65358 11.5568C1.23559 11.9178 0.604117 11.8716 0.243132 11.4536C-0.117852 11.0356 -0.0716462 10.4042 0.346336 10.0432L10.0391 1.67216C11.1654 0.699449 12.8345 0.699451 13.9608 1.67216L23.6536 10.0432C24.0716 10.4042 24.1178 11.0356 23.7568 11.4536C23.3958 11.8716 22.7643 11.9178 22.3463 11.5568L21 10.3941V19C21 21.2091 19.2091 23 17 23H7C4.79086 23 3 21.2091 3 19V10.394ZM9.99996 15C9.99996 14.4477 10.4477 14 11 14H13C13.5522 14 14 14.4477 14 15V21H9.99996V15Z" fill="#7E7B6B"/>
</g>
<defs>
<clipPath id="clip0_17_310">
<rect width="24" height="24" fill="white"/>
</clipPath>
</defs>
</svg>
