<svg width="18" height="19" viewBox="0 0 18 19" fill="none" xmlns="http://www.w3.org/2000/svg">
<g id="Plus Small">
<path id="Icon" d="M8.25 3.875C8.25 3.46079 8.58579 3.125 9 3.125C9.41421 3.125 9.75 3.46079 9.75 3.875V8.75H14.4742C14.8885 8.75 15.2242 9.08579 15.2242 9.5C15.2242 9.91421 14.8885 10.25 14.4742 10.25H9.75V14.9742C9.75 15.3885 9.41421 15.7242 9 15.7242C8.58579 15.7242 8.25 15.3885 8.25 14.9742V10.25H3.375C2.96079 10.25 2.625 9.91421 2.625 9.5C2.625 9.08579 2.96079 8.75 3.375 8.75H8.25V3.875Z" fill="#28261B"/>
</g>
</svg>
