<svg width="16" height="16" viewBox="0 0 16 16" fill="none" xmlns="http://www.w3.org/2000/svg">
<g id="Plus Small">
<path id="Icon" d="M7.33337 3C7.33337 2.63181 7.63185 2.33334 8.00004 2.33334C8.36823 2.33334 8.66671 2.63181 8.66671 3V7.33334H12.866C13.2342 7.33334 13.5327 7.63181 13.5327 8C13.5327 8.36819 13.2342 8.66667 12.866 8.66667H8.66671V12.866C8.66671 13.2342 8.36823 13.5327 8.00004 13.5327C7.63185 13.5327 7.33337 13.2342 7.33337 12.866V8.66667H3.00004C2.63185 8.66667 2.33337 8.36819 2.33337 8C2.33337 7.63181 2.63185 7.33334 3.00004 7.33334H7.33337V3Z" fill="#28261B"/>
</g>
</svg>
