<svg width="24" height="24" viewBox="0 0 24 24" fill="none" xmlns="http://www.w3.org/2000/svg">
<g id="Icon" clip-path="url(#clip0_17_228)">
<g id="Icon_2">
<path fill-rule="evenodd" clip-rule="evenodd" d="M11.9051 10.289C12.3461 9.56323 12.6 8.71127 12.6 7.8C12.6 6.81861 12.3055 5.90601 11.8 5.14576C10.9401 3.85241 9.46958 3 7.8 3C5.14903 3 3 5.14903 3 7.8C3 10.451 5.14903 12.6 7.8 12.6C9.46958 12.6 10.9401 11.7476 11.8 10.4542C11.8361 10.3999 11.8712 10.3448 11.9051 10.289ZM7.8 10.6C9.3464 10.6 10.6 9.3464 10.6 7.8C10.6 6.2536 9.3464 5 7.8 5C6.2536 5 5 6.2536 5 7.8C5 9.3464 6.2536 10.6 7.8 10.6Z" fill="#2E2A14" fill-opacity="0.62"/>
<path fill-rule="evenodd" clip-rule="evenodd" d="M0.263218 17.6482C3.74843 11.9325 12.0481 11.9721 15.6338 17.5727C16.5634 19.0246 15.5566 21 13.7775 21H2.14517C0.424807 21 -0.632419 19.117 0.263218 17.6482ZM13.9495 18.6511C11.1367 14.2579 4.66343 14.2735 1.97081 18.6894C1.88783 18.8255 1.98578 19 2.14517 19H13.7775C13.8555 19 13.9168 18.9643 13.9575 18.8882C13.9993 18.8099 13.9977 18.7264 13.9495 18.6511Z" fill="#2E2A14" fill-opacity="0.62"/>
<path d="M15.8 12.6C14.863 12.6 13.9888 12.3315 13.25 11.8674C13.6493 11.3332 13.9719 10.7383 14.2015 10.0992C14.6547 10.4149 15.2058 10.6 15.8 10.6C17.3464 10.6 18.6 9.3464 18.6 7.8C18.6 6.2536 17.3464 5 15.8 5C15.2058 5 14.6547 5.18512 14.2015 5.50084C13.9719 4.86165 13.6493 4.26681 13.25 3.73264C13.9888 3.26845 14.863 3 15.8 3C18.451 3 20.6 5.14903 20.6 7.8C20.6 10.451 18.451 12.6 15.8 12.6Z" fill="#2E2A14" fill-opacity="0.62"/>
<path d="M21.7775 21H17.3562C17.721 20.3992 17.9381 19.7098 17.978 19H21.7775C21.8555 19 21.9168 18.9643 21.9575 18.8882C21.9993 18.8099 21.9977 18.7264 21.9495 18.6511C20.6647 16.6444 18.6162 15.5576 16.5132 15.3898C15.9048 14.6525 15.2204 14.0158 14.481 13.4802C17.8775 12.9425 21.5509 14.3194 23.6338 17.5727C24.5634 19.0246 23.5566 21 21.7775 21Z" fill="#2E2A14" fill-opacity="0.62"/>
</g>
</g>
<defs>
<clipPath id="clip0_17_228">
<rect width="24" height="24" fill="white"/>
</clipPath>
</defs>
</svg>
