<svg width="24" height="24" viewBox="0 0 24 24" fill="none" xmlns="http://www.w3.org/2000/svg">
<g id="Icon">
<path id="Icon_2" fill-rule="evenodd" clip-rule="evenodd" d="M10.0001 1C5.0295 1 1.00006 5.02944 1.00006 10C1.00006 14.9706 5.0295 19 10.0001 19C12.1251 19 14.0781 18.2635 15.6177 17.0319L21.293 22.7071C21.6835 23.0976 22.3166 23.0976 22.7072 22.7071C23.0977 22.3166 23.0977 21.6834 22.7072 21.2929L17.032 15.6177C18.2636 14.078 19.0001 12.125 19.0001 10C19.0001 5.02944 14.9706 1 10.0001 1ZM3.00006 10C3.00006 6.13401 6.13407 3 10.0001 3C13.8661 3 17.0001 6.13401 17.0001 10C17.0001 13.866 13.8661 17 10.0001 17C6.13407 17 3.00006 13.866 3.00006 10Z" fill="#2E2814" fill-opacity="0.62"/>
</g>
</svg>
