<svg width="14" height="14" viewBox="0 0 14 14" fill="none" xmlns="http://www.w3.org/2000/svg">
<g id="Star">
<path id="Icon" fill-rule="evenodd" clip-rule="evenodd" d="M5.7227 5.09671C5.70317 5.1568 5.64718 5.19748 5.584 5.19748H1.90062C1.75935 5.19748 1.70061 5.37826 1.8149 5.46129L4.79482 7.62633C4.84593 7.66347 4.86732 7.72929 4.84779 7.78938L3.70957 11.2925C3.66591 11.4268 3.81969 11.5386 3.93398 11.4555L6.9139 9.29049C6.96501 9.25336 7.03422 9.25336 7.08534 9.29049L10.0653 11.4555C10.1795 11.5386 10.3333 11.4268 10.2897 11.2925L9.15144 7.78938C9.13192 7.72929 9.15331 7.66347 9.20442 7.62633L12.1843 5.46129C12.2986 5.37826 12.2399 5.19748 12.0986 5.19748H8.41524C8.35206 5.19748 8.29607 5.1568 8.27654 5.09671L7.13831 1.59361C7.09466 1.45925 6.90458 1.45925 6.86092 1.59361L5.7227 5.09671ZM9.15692 4.03081L8.24788 1.23309C7.85498 0.0238692 6.14426 0.0238644 5.75136 1.23309L4.84232 4.03081H1.90062C0.629167 4.03081 0.100526 5.65781 1.12915 6.40515L3.50904 8.13424L2.6 10.932C2.2071 12.1412 3.5911 13.1467 4.61973 12.3994L6.99962 10.6703L9.37951 12.3994C10.4081 13.1467 11.7921 12.1412 11.3992 10.932L10.4902 8.13424L12.8701 6.40515C13.8987 5.65781 13.3701 4.03081 12.0986 4.03081H9.15692Z" fill="#947100"/>
</g>
</svg>
