<svg width="16" height="16" viewBox="0 0 16 16" fill="none" xmlns="http://www.w3.org/2000/svg">
<g id="Trash">
<g id="Icon">
<path d="M6.3321 6.62506C6.30913 6.25759 5.99262 5.97831 5.62514 6.00128C5.25767 6.02425 4.97839 6.34076 5.00136 6.70823L5.33469 12.0416C5.35766 12.409 5.67418 12.6883 6.04165 12.6653C6.40912 12.6424 6.6884 12.3259 6.66543 11.9584L6.3321 6.62506Z" fill="#28261B"/>
<path d="M10.9988 6.70823C11.0217 6.34076 10.7425 6.02425 10.375 6.00128C10.0075 5.97831 9.691 6.25759 9.66803 6.62506L9.3347 11.9584C9.31173 12.3259 9.59101 12.6424 9.95848 12.6653C10.326 12.6883 10.6425 12.409 10.6654 12.0416L10.9988 6.70823Z" fill="#28261B"/>
<path d="M8.66673 6.66665C8.66673 6.29846 8.36825 5.99998 8.00006 5.99998C7.63187 5.99998 7.3334 6.29846 7.3334 6.66665V12C7.3334 12.3682 7.63187 12.6666 8.00006 12.6666C8.36825 12.6666 8.66673 12.3682 8.66673 12V6.66665Z" fill="#28261B"/>
<path fill-rule="evenodd" clip-rule="evenodd" d="M7.44101 0.666665H8.55907C8.91049 0.666653 9.21369 0.666644 9.46339 0.687046C9.72696 0.70858 9.9891 0.756123 10.2414 0.884653C10.6177 1.0764 10.9236 1.38236 11.1154 1.75868C11.2439 2.01094 11.2915 2.27308 11.313 2.53665C11.3313 2.7605 11.3332 3.02731 11.3334 3.33333H14C14.3682 3.33333 14.6667 3.63181 14.6667 4C14.6667 4.36819 14.3682 4.66667 14 4.66667H13.293L12.8513 11.7343C12.8197 12.24 12.7935 12.6585 12.7449 12.9991C12.6943 13.3536 12.613 13.6777 12.442 13.9799C12.1759 14.4503 11.7731 14.8286 11.2871 15.0649C10.9748 15.2168 10.6462 15.2777 10.2892 15.3061C9.94625 15.3333 9.527 15.3333 9.02031 15.3333H6.97977C6.47308 15.3333 6.05383 15.3333 5.71087 15.3061C5.35384 15.2777 5.02529 15.2168 4.713 15.0649C4.22698 14.8286 3.82421 14.4503 3.55807 13.9799C3.38707 13.6777 3.30577 13.3536 3.25516 12.9991C3.20654 12.6585 3.1804 12.24 3.1488 11.7344L2.70707 4.66667H2.00004C1.63185 4.66667 1.33337 4.36819 1.33337 4C1.33337 3.63181 1.63185 3.33333 2.00004 3.33333H4.66673C4.66691 3.02731 4.6688 2.7605 4.68709 2.53665C4.70862 2.27308 4.75617 2.01094 4.88469 1.75868C5.07644 1.38236 5.3824 1.0764 5.75873 0.884653C6.01098 0.756123 6.27313 0.70858 6.53669 0.687046C6.7864 0.666644 7.08959 0.666653 7.44101 0.666665ZM9.98409 2.64522C9.99766 2.81132 9.9997 3.02326 9.99999 3.33333H6.00009C6.00038 3.02326 6.00242 2.81132 6.01599 2.64522C6.03079 2.46411 6.05591 2.39697 6.0727 2.36401C6.13662 2.23856 6.23861 2.13658 6.36405 2.07266C6.39701 2.05587 6.46416 2.03075 6.64526 2.01595C6.83416 2.00052 7.08234 2 7.46671 2H8.53337C8.91774 2 9.16593 2.00052 9.35482 2.01595C9.53593 2.03075 9.60307 2.05587 9.63603 2.07266C9.76148 2.13658 9.86346 2.23856 9.92738 2.36401C9.94417 2.39697 9.96929 2.46411 9.98409 2.64522ZM4.04301 4.66667H11.9571L11.5222 11.6247C11.4885 12.1635 11.4652 12.5288 11.425 12.8106C11.3859 13.0845 11.3373 13.2248 11.2816 13.3233C11.1485 13.5585 10.9471 13.7477 10.7041 13.8658C10.6023 13.9153 10.4592 13.955 10.1835 13.9769C9.89967 13.9995 9.53368 14 8.9938 14H7.00628C6.4664 14 6.10041 13.9995 5.81658 13.9769C5.54084 13.955 5.39775 13.9153 5.29597 13.8658C5.05296 13.7477 4.85158 13.5585 4.71851 13.3233C4.66278 13.2248 4.6142 13.0845 4.57511 12.8106C4.53488 12.5288 4.51156 12.1635 4.47788 11.6247L4.04301 4.66667Z" fill="#28261B"/>
</g>
</g>
</svg>
